<svg xmlns="http://www.w3.org/2000/svg">
  <symbol id="large">
    <rect width="20" height="20" rx="10" transform="matrix(1 0 0 -1 8 27.5)" fill="currentColor"/>
    <path d="M38.0923 15V3.76488H42.836C42.9452 3.76488 43.0909 3.77009 43.2729 3.78049C43.4602 3.78569 43.6266 3.80129 43.7723 3.8273C44.4433 3.93133 44.992 4.15239 45.4185 4.49048C45.8503 4.82858 46.1675 5.2551 46.3704 5.77004C46.5733 6.27978 46.6747 6.84934 46.6747 7.47871C46.6747 8.10809 46.5707 8.68025 46.3626 9.19519C46.1597 9.70493 45.8425 10.1288 45.4107 10.4669C44.9842 10.805 44.4381 11.0261 43.7723 11.1301C43.6266 11.1509 43.4602 11.1665 43.2729 11.1769C43.0857 11.1873 42.94 11.1925 42.836 11.1925H40.2145V15H38.0923ZM40.2145 9.21079H42.7424C42.8516 9.21079 42.9713 9.20559 43.1013 9.19519C43.2313 9.18479 43.351 9.16398 43.4602 9.13277C43.7463 9.05475 43.9673 8.92472 44.1234 8.74266C44.2794 8.55541 44.386 8.34996 44.4433 8.12629C44.5057 7.89743 44.5369 7.68157 44.5369 7.47871C44.5369 7.27586 44.5057 7.0626 44.4433 6.83894C44.386 6.61007 44.2794 6.40462 44.1234 6.22257C43.9673 6.03531 43.7463 5.90268 43.4602 5.82466C43.351 5.79345 43.2313 5.77264 43.1013 5.76224C42.9713 5.75183 42.8516 5.74663 42.7424 5.74663H40.2145V9.21079ZM46.6838 15L50.1168 3.76488H53.2845L56.7174 15H54.5328L51.4744 5.09125H51.8801L48.8684 15H46.6838ZM48.7436 12.6594V10.6776H54.6732V12.6594H48.7436ZM59.9326 15V10.4279L56.094 3.76488H58.5751L61.0093 7.99366L63.4436 3.76488H65.9247L62.086 10.4279V15H59.9326ZM68.1219 15.2341C67.2272 15.2341 66.4886 15.0052 65.906 14.5475C65.3287 14.0897 64.9178 13.4708 64.6733 12.6906L66.7643 12.1912C66.8111 12.4773 66.9619 12.727 67.2168 12.9402C67.4717 13.1483 67.7421 13.2523 68.0282 13.2523C68.2259 13.2523 68.4365 13.1977 68.6602 13.0885C68.8891 12.9792 69.0529 12.805 69.1517 12.5657C69.2142 12.4149 69.2506 12.2302 69.261 12.0118C69.2714 11.7933 69.2766 11.541 69.2766 11.255V3.76488H71.43V11.255C71.43 11.6139 71.4274 11.9259 71.4222 12.1912C71.4222 12.4565 71.3962 12.7062 71.3441 12.9402C71.2973 13.1691 71.2011 13.4084 71.0555 13.658C70.7382 14.2094 70.3247 14.6099 69.8149 14.8596C69.3052 15.1092 68.7408 15.2341 68.1219 15.2341ZM78.5876 15.2341C77.4641 15.2341 76.494 14.9896 75.6774 14.5007C74.866 14.0117 74.2392 13.3277 73.7971 12.4487C73.3602 11.5696 73.1417 10.5476 73.1417 9.38244C73.1417 8.21732 73.3602 7.19524 73.7971 6.31619C74.2392 5.43715 74.866 4.75316 75.6774 4.26422C76.494 3.77529 77.4641 3.53082 78.5876 3.53082C79.7111 3.53082 80.6786 3.77529 81.49 4.26422C82.3066 4.75316 82.9334 5.43715 83.3703 6.31619C83.8125 7.19524 84.0335 8.21732 84.0335 9.38244C84.0335 10.5476 83.8125 11.5696 83.3703 12.4487C82.9334 13.3277 82.3066 14.0117 81.49 14.5007C80.6786 14.9896 79.7111 15.2341 78.5876 15.2341ZM78.5876 13.2367C79.3002 13.2471 79.8932 13.0937 80.3665 12.7764C80.8398 12.4591 81.1935 12.0092 81.4276 11.4266C81.6669 10.844 81.7865 10.1627 81.7865 9.38244C81.7865 8.60223 81.6669 7.92604 81.4276 7.35388C81.1935 6.78172 80.8398 6.337 80.3665 6.01971C79.8932 5.70242 79.3002 5.53858 78.5876 5.52817C77.875 5.51777 77.282 5.67121 76.8087 5.9885C76.3354 6.30579 75.9791 6.75571 75.7398 7.33827C75.5058 7.92084 75.3887 8.60223 75.3887 9.38244C75.3887 10.1627 75.5058 10.8388 75.7398 11.411C75.9791 11.9832 76.3354 12.4279 76.8087 12.7452C77.282 13.0625 77.875 13.2263 78.5876 13.2367ZM85.7471 15V3.76488H87.8693V15H85.7471ZM90.2083 15V3.76488H92.3617L97.2459 11.255V3.76488H99.3993V15H97.2459L92.3617 7.50992V15H90.2083ZM38.0923 29V17.7649H41.4394C41.5695 17.7649 41.7801 17.7675 42.0714 17.7727C42.3679 17.7779 42.6488 17.8013 42.914 17.8429C43.7567 17.9573 44.4563 18.2746 45.0128 18.7948C45.5694 19.3097 45.9855 19.9651 46.2612 20.7609C46.5368 21.5515 46.6747 22.4254 46.6747 23.3824C46.6747 24.3447 46.5368 25.2238 46.2612 26.0196C45.9855 26.8102 45.5694 27.463 45.0128 27.9779C44.4563 28.4929 43.7567 28.8075 42.914 28.922C42.6488 28.9584 42.3653 28.9818 42.0636 28.9922C41.7671 28.9974 41.5591 29 41.4394 29H38.0923ZM39.0364 28.1184H41.4394C41.6735 28.1184 41.9154 28.1132 42.165 28.1028C42.4147 28.0871 42.628 28.0637 42.8048 28.0325C43.5018 27.9077 44.0636 27.632 44.4901 27.2055C44.9166 26.7738 45.2261 26.2302 45.4185 25.5749C45.6162 24.9143 45.715 24.1835 45.715 23.3824C45.715 22.5762 45.6162 21.8454 45.4185 21.19C45.2209 20.5295 44.9088 19.9859 44.4823 19.5594C44.0558 19.1277 43.4966 18.852 42.8048 18.7324C42.628 18.7011 42.4095 18.6803 42.1494 18.6699C41.8946 18.6543 41.6579 18.6465 41.4394 18.6465H39.0364V28.1184ZM48.4088 29V17.7649H55.3528V18.6387H49.3061V22.9065H54.4165V23.7804H49.3061V28.1262H55.3528V29H48.4088ZM60.1968 29L56.2177 17.7649H57.1696L60.743 27.8765L64.3398 17.7649H65.2916L61.3125 29H60.1968ZM69.5905 29V17.7649H70.4877V23.1016L75.8322 17.7649H77.0182L71.6425 23.164L77.4863 29H76.2847L70.4877 23.2576V29H69.5905ZM78.7373 29V17.7649H79.6346V29H78.7373ZM85.0691 29V18.6387H81.0432V17.7649H89.9923V18.6387H85.9664V29H85.0691Z" fill="currentColor"/>
  </symbol>
  <symbol id="small">
    <rect width="20" height="20" rx="10" transform="matrix(1 0 0 -1 8 27.5)" fill="currentColor"/>
    <path d="M38.68 25.5V8.22H45.976C46.144 8.22 46.368 8.228 46.648 8.244C46.936 8.252 47.192 8.276 47.416 8.316C48.448 8.476 49.292 8.816 49.948 9.336C50.612 9.856 51.1 10.512 51.412 11.304C51.724 12.088 51.88 12.964 51.88 13.932C51.88 14.9 51.72 15.78 51.4 16.572C51.088 17.356 50.6 18.008 49.936 18.528C49.28 19.048 48.44 19.388 47.416 19.548C47.192 19.58 46.936 19.604 46.648 19.62C46.36 19.636 46.136 19.644 45.976 19.644H41.944V25.5H38.68ZM41.944 16.596H45.832C46 16.596 46.184 16.588 46.384 16.572C46.584 16.556 46.768 16.524 46.936 16.476C47.376 16.356 47.716 16.156 47.956 15.876C48.196 15.588 48.36 15.272 48.448 14.928C48.544 14.576 48.592 14.244 48.592 13.932C48.592 13.62 48.544 13.292 48.448 12.948C48.36 12.596 48.196 12.28 47.956 12C47.716 11.712 47.376 11.508 46.936 11.388C46.768 11.34 46.584 11.308 46.384 11.292C46.184 11.276 46 11.268 45.832 11.268H41.944V16.596ZM54.2894 25.5V8.22H59.8814C60.0174 8.22 60.2974 8.224 60.7214 8.232C61.1454 8.24 61.5534 8.268 61.9454 8.316C63.3374 8.484 64.5174 8.968 65.4854 9.768C66.4534 10.568 67.1894 11.584 67.6934 12.816C68.1974 14.048 68.4494 15.396 68.4494 16.86C68.4494 18.324 68.1974 19.672 67.6934 20.904C67.1894 22.136 66.4534 23.152 65.4854 23.952C64.5174 24.752 63.3374 25.236 61.9454 25.404C61.5534 25.452 61.1454 25.48 60.7214 25.488C60.2974 25.496 60.0174 25.5 59.8814 25.5H54.2894ZM57.6014 22.428H59.8814C60.0974 22.428 60.3894 22.424 60.7574 22.416C61.1254 22.4 61.4574 22.364 61.7534 22.308C62.5054 22.156 63.1174 21.804 63.5894 21.252C64.0694 20.7 64.4214 20.036 64.6454 19.26C64.8774 18.484 64.9934 17.684 64.9934 16.86C64.9934 15.996 64.8734 15.176 64.6334 14.4C64.4014 13.624 64.0454 12.968 63.5654 12.432C63.0854 11.896 62.4814 11.556 61.7534 11.412C61.4574 11.348 61.1254 11.312 60.7574 11.304C60.3894 11.296 60.0974 11.292 59.8814 11.292H57.6014V22.428ZM71.3284 25.5V8.22H74.5924V16.188L81.1684 8.22H85.1524L77.9284 16.74L85.6084 25.5H81.4804L74.5924 17.628V25.5H71.3284Z" fill="currentColor"/>
  </symbol>
</svg>
